<svg width="500" height="500" viewBox="0 0 100 100" fill="none" xmlns="http://www.w3.org/2000/svg">
  <circle cx="50" cy="50" r="45" fill="url(#paint0_radial_logo)" fill-opacity="0.1"/>
  
  <path d="M25 20H75V32H37V46H68V58H37V80H25V20Z" fill="url(#paint1_linear_logic)" />
  
  <path d="M75 20L75 32L85 32L85 20H75Z" fill="#60A5FA" />
  <circle cx="68" cy="52" r="4" fill="#A78BFA" />
  <path d="M25 20C25 20 50 22 50 50C50 78 25 80 25 80V20Z" fill="url(#paint2_linear_art)" fill-opacity="0.3" />
  
  <circle cx="75" cy="26" r="3" fill="#3B82F6" />
  <circle cx="68" cy="52" r="2" fill="#8B5CF6" />
  <circle cx="25" cy="20" r="2" fill="#60A5FA" />
  <circle cx="25" cy="80" r="2" fill="#A78BFA" />

  <defs>
    <linearGradient id="paint1_linear_logic" x1="25" y1="20" x2="75" y2="80" gradientUnits="userSpaceOnUse">
      <stop stop-color="#60A5FA"/>
      <stop offset="1" stop-color="#2563EB"/>
    </linearGradient>
    
    <linearGradient id="paint2_linear_art" x1="25" y1="20" x2="50" y2="80" gradientUnits="userSpaceOnUse">
      <stop stop-color="#A78BFA"/>
      <stop offset="1" stop-color="#7C3AED"/>
    </linearGradient>
    
    <radialGradient id="paint0_radial_logo" cx="0" cy="0" r="1" gradientUnits="userSpaceOnUse" gradientTransform="translate(50 50) rotate(90) scale(45)">
      <stop stop-color="#60A5FA"/>
      <stop offset="1" stop-color="#3B82F6" stop-opacity="0"/>
    </radialGradient>
  </defs>
</svg>
